<svg xmlns="http://www.w3.org/2000/svg" width="103.384" height="134.596" viewBox="0 0 103.384 134.596"><g transform="translate(-59.366)"><path d="M153.815,73.6l8.934-8.8-4.244-11.794,4.244-11.794-8.934-8.8L152.5,19.954l-11.859-4.044L134.065,5.238l-12.447,1.5L111.058,0,100.5,6.74l-12.446-1.5L81.475,15.909,69.615,19.953,68.3,32.417l-8.934,8.8L63.61,53.006,59.366,64.8,68.3,73.6,69.615,86.06,76.2,88.305,64.914,123.579l19.32-1.063L99.349,134.6l9.58-29.942,2.129,1.359,2.129-1.359,9.58,29.942,15.115-12.08,19.32,1.063L145.916,88.305,152.5,86.06ZM95.324,121.275l-8.515-6.8-10.884.6,7.154-22.361,4.972,8.068,12.447-1.5,1.55.989Zm39.983-6.8-8.515,6.8-6.723-21.013,1.55-.989,12.446,1.5,4.972-8.068,7.154,22.361Zm9.872-34.253-9.77,3.332L130,92.333,119.757,91.1l-8.7,5.552-8.7-5.552L92.12,92.333l-5.414-8.785-9.77-3.332L75.854,69.955,68.5,62.72,72,53.006l-3.5-9.713,7.35-7.236L76.936,25.8l9.77-3.332L92.12,13.68l10.239,1.236,8.7-5.552,8.7,5.552L130,13.68l5.414,8.785,9.77,3.332,1.082,10.261,7.35,7.236-3.5,9.713,3.5,9.713-7.35,7.236Z"/><path d="M169.872,84.791a30.716,30.716,0,1,0,30.716,30.716A30.751,30.751,0,0,0,169.872,84.791Zm0,53.539A22.823,22.823,0,1,1,192.7,115.507,22.849,22.849,0,0,1,169.872,138.33Z" transform="translate(-58.815 -62.501)"/></g></svg>