<svg xmlns="http://www.w3.org/2000/svg" width="57.454" height="57.454" viewBox="0 0 57.454 57.454"><defs><style>.a{fill:#32ba7c;}.b{fill:#0aa06e;}.c{fill:#fff;}</style></defs><circle class="a" cx="28.727" cy="28.727" r="28.727" transform="translate(0 0)"/><path class="b" d="M188.8,176.468l14.771,14.771a28.708,28.708,0,0,0,21.3-27.73v-.816L213.268,152Z" transform="translate(-167.413 -134.782)"/><g transform="translate(9.651 14.182)"><path class="c" d="M105,212.151a3.393,3.393,0,0,1,0,4.712l-2.628,2.628a3.393,3.393,0,0,1-4.712,0l-11.509-11.6a3.393,3.393,0,0,1,0-4.712l2.628-2.628a3.393,3.393,0,0,1,4.712,0Z" transform="translate(-85.2 -191.172)"/><path class="c" d="M185.288,126.152a3.393,3.393,0,0,1,4.712,0l2.628,2.628a3.393,3.393,0,0,1,0,4.712l-19.937,19.846a3.393,3.393,0,0,1-4.712,0l-2.628-2.628a3.393,3.393,0,0,1,0-4.712Z" transform="translate(-155.429 -125.2)"/></g></svg>