<svg xmlns="http://www.w3.org/2000/svg" width="212.778" height="134.596" viewBox="0 0 212.778 134.596"><g transform="translate(0 -94.062)"><g transform="translate(0 94.062)"><path d="M197.883,151.122l-5.51-22.04a3.332,3.332,0,0,0,2.637-3.258V122.27a14.009,14.009,0,0,0-13.993-13.993h-25.1v-7.33a6.893,6.893,0,0,0-6.885-6.885H21.1a6.893,6.893,0,0,0-6.885,6.885v60.413a3.332,3.332,0,1,0,6.663,0V100.947a.222.222,0,0,1,.222-.222H149.034a.222.222,0,0,1,.222.222v60.414a3.332,3.332,0,0,0,6.663,0v-3.777h39.319a10.9,10.9,0,0,1,10.353,7.552h-10.36a3.332,3.332,0,0,0-3.332,3.332v7.107a10.451,10.451,0,0,0,10.439,10.439h3.776v14.659H197.4a21.094,21.094,0,0,0-39.881,0h-1.6v-25.1a3.332,3.332,0,1,0-6.663,0v25.1H80.132a21.094,21.094,0,0,0-39.881,0H21.1a.222.222,0,0,1-.222-.222v-7.33H35.315a3.332,3.332,0,0,0,0-6.663H3.332a3.332,3.332,0,0,0,0,6.663H14.215v7.33a6.893,6.893,0,0,0,6.885,6.885h18c0,.074-.006.148-.006.222a21.1,21.1,0,0,0,42.2,0c0-.075,0-.148-.006-.222h75.083c0,.074-.006.148-.006.222a21.1,21.1,0,0,0,42.2,0c0-.075,0-.148-.006-.222h10.89A3.332,3.332,0,0,0,212.778,204V168.468A17.573,17.573,0,0,0,197.883,151.122ZM155.919,114.94h25.1a7.338,7.338,0,0,1,7.33,7.33v.222H155.919Zm0,35.981V129.155h29.6l5.442,21.767ZM60.191,222a14.437,14.437,0,1,1,14.437-14.437A14.453,14.453,0,0,1,60.191,222Zm117.273,0A14.437,14.437,0,1,1,191.9,207.559,14.453,14.453,0,0,1,177.464,222Zm28.652-42.645H202.34a3.78,3.78,0,0,1-3.776-3.776V171.8h7.552v7.552Z" transform="translate(0 -94.062)"/></g><g transform="translate(53.306 200.674)"><path d="M135.152,350.6a6.885,6.885,0,1,0,6.885,6.885A6.893,6.893,0,0,0,135.152,350.6Z" transform="translate(-128.267 -350.597)"/></g><g transform="translate(170.578 200.674)"><path d="M417.34,350.6a6.885,6.885,0,1,0,6.885,6.885A6.893,6.893,0,0,0,417.34,350.6Z" transform="translate(-410.455 -350.597)"/></g><g transform="translate(85.289 186.459)"><path d="M258.311,316.393H208.559a3.332,3.332,0,1,0,0,6.663h49.752a3.332,3.332,0,1,0,0-6.663Z" transform="translate(-205.227 -316.393)"/></g><g transform="translate(7.107 172.244)"><path d="M63.078,282.188H20.434a3.332,3.332,0,0,0,0,6.663H63.078a3.332,3.332,0,0,0,0-6.663Z" transform="translate(-17.102 -282.188)"/></g><g transform="translate(60.413 126.046)"><path d="M200.809,172a3.332,3.332,0,0,0-4.711,0L166.47,201.626l-15.413-15.413a3.332,3.332,0,1,0-4.711,4.711l17.769,17.769a3.331,3.331,0,0,0,4.711,0l31.983-31.983A3.332,3.332,0,0,0,200.809,172Z" transform="translate(-145.37 -171.023)"/></g></g></svg>