<svg xmlns="http://www.w3.org/2000/svg" width="52.747" height="52.825" viewBox="0 0 52.747 52.825"><defs><style>.a{fill:#f1602a;}</style></defs><path class="a" d="M50.948,74.458a4.444,4.444,0,0,0-3.5.042l-.5.208a4.5,4.5,0,0,0-2.21-1.918,4.444,4.444,0,0,0-3.5.042L36.4,74.875A1.26,1.26,0,0,0,35.73,76.5a1.283,1.283,0,0,0,1.167.75,2.093,2.093,0,0,0,.5-.083l4.836-2.043a2.085,2.085,0,0,1,1.584,0,1.877,1.877,0,0,1,.792.584l-9.8,4.169a4.533,4.533,0,0,0-2.71-4.5l-10.84-4.836A13.757,13.757,0,0,0,7.337,72.165L5.711,73.416l-.125.125-.417.417a1.2,1.2,0,0,0-.375.876V88.175H2.251a1.251,1.251,0,1,0,0,2.5H6a1.228,1.228,0,0,0,1.251-1.251V75.334l1.584-1.209a11.288,11.288,0,0,1,11.424-1.334l10.757,4.836A1.883,1.883,0,0,1,32.1,78.794a2.087,2.087,0,0,1-.042,1.584,2.05,2.05,0,0,1-1.126,1.084,2.087,2.087,0,0,1-1.584-.042L21.013,77.71A1.259,1.259,0,1,0,19.97,80l8.339,3.711a4.447,4.447,0,0,0,3.5.083,1.541,1.541,0,0,0,.459-.208c.083,0,.125-.042.167-.042l15.927-6.754a2.085,2.085,0,0,1,1.584,0,2.124,2.124,0,0,1,1.126,1.126,2.085,2.085,0,0,1,0,1.584,2.124,2.124,0,0,1-1.126,1.126L26.433,90.552a7.063,7.063,0,0,1-5.879-.167l-9.923-4.836A1.249,1.249,0,1,0,9.547,87.8l9.923,4.836a9.294,9.294,0,0,0,4.211.959,9.879,9.879,0,0,0,3.752-.75l23.515-9.923a4.526,4.526,0,0,0,2.46-2.5,4.444,4.444,0,0,0-.042-3.5,4.258,4.258,0,0,0-2.418-2.46Z" transform="translate(-1 -40.771)"/><path class="a" d="M55.092,20.813h1.167a13.069,13.069,0,0,0,13.05-13.05V7.179a1.228,1.228,0,0,0-1.251-1.251h-.584a12.839,12.839,0,0,0-4.169.667A11.889,11.889,0,0,0,60.47,7.971a12.606,12.606,0,0,0-3.5-6.379l-.417-.417a1.209,1.209,0,0,0-1.751,0l-.417.417a13.148,13.148,0,0,0-3.044,13.675,1.24,1.24,0,0,0,2.335-.834,10.66,10.66,0,0,1,2-10.548,10.615,10.615,0,0,1-.459,14.426l-.042.042h-.083a2.564,2.564,0,0,1-.584-.042.041.041,0,0,0-.042-.042v.042a10.546,10.546,0,0,1-9.381-7.171,11.664,11.664,0,0,1-.542-2.668,10.092,10.092,0,0,1,2.71.542,1.253,1.253,0,1,0,.792-2.376,12.938,12.938,0,0,0-4.211-.709h-.584A1.228,1.228,0,0,0,42,7.179v.584a12.839,12.839,0,0,0,.667,4.169,13.156,13.156,0,0,0,12.424,8.881Z" transform="translate(-24.906 -0.8)"/></svg>