<svg xmlns="http://www.w3.org/2000/svg" width="20" height="18" viewBox="0 0 20 18"><defs><style>.a{fill:#fff;}</style></defs><g transform="translate(-2 -3)"><path class="a" d="M9,3a5,5,0,1,0,5,5A5,5,0,0,0,9,3ZM6,8a3,3,0,1,1,3,3A3,3,0,0,1,6,8Z"/><path class="a" d="M16.908,8.218A2,2,0,0,0,16,8V6a4,4,0,0,1,1.817.436q.093.047.183.1a4,4,0,0,1-2.427,7.441q-.1-.011-.207-.028a4,4,0,0,1-1.724-.718h0l1.179-1.616a2,2,0,1,0,2.087-3.4Z"/><path class="a" d="M20,21a4,4,0,0,0-4-4V15a6,6,0,0,1,2,.343q.149.053.3.114A6,6,0,0,1,21.543,18.7q.061.147.114.3A6,6,0,0,1,22,21Z"/><path class="a" d="M16,21H14A5,5,0,0,0,4,21H2a7,7,0,0,1,14,0Z"/></g></svg>