<svg xmlns="http://www.w3.org/2000/svg" width="35.396" height="34.722" viewBox="0 0 35.396 34.722"><defs><style>.a{fill:#fff;}</style></defs><g transform="translate(0 -4.035)"><g transform="translate(0 4.035)"><g transform="translate(0 0)"><path class="a" d="M35.168,15.827a.786.786,0,0,0-.655-.218h-9.39V11.46a7.425,7.425,0,0,0-14.849,0v4.149H.883c-.262,0-.524,0-.655.218a.743.743,0,0,0-.218.655L3.285,34.389a5.328,5.328,0,0,0,5.154,4.368H26.957a5.372,5.372,0,0,0,5.154-4.411l3.276-17.863A.743.743,0,0,0,35.168,15.827ZM12.02,11.46a5.678,5.678,0,1,1,11.355,0v4.149H12.02ZM30.364,34.127a3.494,3.494,0,0,1-3.407,2.883H8.439a3.494,3.494,0,0,1-3.407-2.883l-3.1-16.771H33.464Z" transform="translate(0 -4.035)"/><path class="a" d="M280.651,218.134a1.024,1.024,0,0,0,1.024-1.024v-3.072a1.024,1.024,0,0,0-2.048,0v3.072A1.024,1.024,0,0,0,280.651,218.134Z" transform="translate(-256.46 -195.977)"/><path class="a" d="M123.916,218.134a1.024,1.024,0,0,0,1.024-1.024v-3.072a1.024,1.024,0,1,0-2.048,0v3.072A1.024,1.024,0,0,0,123.916,218.134Z" transform="translate(-112.711 -195.977)"/></g></g></g></svg>