<svg xmlns="http://www.w3.org/2000/svg" width="19.999" height="19.999" viewBox="0 0 19.999 19.999"><defs><style>.a{fill:#fff;}</style></defs><g transform="translate(0 0)"><g transform="translate(0 0)"><path class="a" d="M17.069,2.927A10,10,0,1,0,20,10,10,10,0,0,0,17.069,2.927Zm-1.925,11h0v0l-.507.5a2.667,2.667,0,0,1-2.517.72A8.86,8.86,0,0,1,9.546,14a11.889,11.889,0,0,1-2.03-1.637A11.98,11.98,0,0,1,6,10.52a9.332,9.332,0,0,1-1.14-2.307,2.666,2.666,0,0,1,.667-2.723L6.119,4.9a.423.423,0,0,1,.6,0h0L8.593,6.771a.423.423,0,0,1,0,.6h0l-1.1,1.1A.9.9,0,0,0,7.4,9.637a12.864,12.864,0,0,0,1.317,1.537,12.785,12.785,0,0,0,1.733,1.457.9.9,0,0,0,1.153-.1l1.063-1.08a.423.423,0,0,1,.6,0h0l1.877,1.88A.423.423,0,0,1,15.144,13.929Z" transform="translate(0 0)"/></g></g></svg>