<svg xmlns="http://www.w3.org/2000/svg" width="134.728" height="134.596" viewBox="0 0 134.728 134.596"><g transform="translate(0 -0.5)"><path d="M134.686,60.044h0a7.732,7.732,0,0,0-2.983-5.315l-7.668-5.97,2.882-9.51a7.7,7.7,0,0,0-5.618-9.733l-9.647-2.252-1.232-9.829a7.7,7.7,0,0,0-9.092-6.605L91.6,12.694,86.476,4.215a7.782,7.782,0,0,0-9.958-2.968,4.583,4.583,0,0,0-.717.412L67.356,7.541l-8.13-5.663A7.7,7.7,0,0,0,48.235,4.217l-5.122,8.478-9.73-1.867a7.7,7.7,0,0,0-9.09,6.605l-1.231,9.83-10.2,2.382-.479.156-.177.077A7.706,7.706,0,0,0,7.8,39.248l2.881,9.51-8,6.221-.464.4-.131.143a7.8,7.8,0,0,0-.25,10.33L8.1,73.342,3.022,82.551l-.2.461-.059.172A7.794,7.794,0,0,0,6.77,92.74l8.967,4.208-.84,9.87a7.7,7.7,0,0,0,7.52,8.353l9.9.2,3.248,9.357A7.7,7.7,0,0,0,45.836,129.3l9.129-3.847L62.13,133.1l.375.334.145.108a7.91,7.91,0,0,0,4.708,1.557,7.672,7.672,0,0,0,5.618-2.419l6.774-7.227,9.13,3.848a7.7,7.7,0,0,0,10.264-4.572l3.249-9.358,10.476-.209.5-.054.179-.036a7.8,7.8,0,0,0,6.27-8.25l-.839-9.871,8.968-4.208a7.7,7.7,0,0,0,3.472-10.688l-4.8-8.711,6.262-7.487A7.728,7.728,0,0,0,134.686,60.044ZM119.15,69.956a4.671,4.671,0,0,0-.524,5.254l5.769,10.47-10.823,5.079a4.674,4.674,0,0,0-2.659,4.607l1.013,11.911-11.952.239a4.671,4.671,0,0,0-4.3,3.127l-3.92,11.294-11.015-4.643a4.673,4.673,0,0,0-5.2,1.106l-8.175,8.723L59.181,118.4a4.665,4.665,0,0,0-3.4-1.468,4.611,4.611,0,0,0-1.8.363l-11.017,4.643-3.919-11.29a4.671,4.671,0,0,0-4.3-3.13l-11.954-.239L23.8,95.366a4.673,4.673,0,0,0-2.659-4.607L10.317,85.68l5.77-10.469a4.671,4.671,0,0,0-.525-5.256L7.967,60.874l9.3-7.239A4.669,4.669,0,0,0,18.883,48.6L15.417,37.161l11.643-2.72a4.673,4.673,0,0,0,3.558-3.952l1.486-11.862,11.743,2.252a4.674,4.674,0,0,0,4.858-2.164L54.888,8.484,64.7,15.315a4.67,4.67,0,0,0,5.319,0l9.809-6.832,6.183,10.23a4.672,4.672,0,0,0,4.86,2.166l11.741-2.252L104.1,30.487a4.673,4.673,0,0,0,3.56,3.954L119.3,37.16,115.83,48.6a4.672,4.672,0,0,0,1.614,5.036l9.3,7.241Zm0,0" transform="translate(0 0)"/><path d="M163.616,128.781a33.55,33.55,0,1,0,33.551,33.55A33.587,33.587,0,0,0,163.616,128.781Zm0,59.2a25.65,25.65,0,1,1,25.65-25.649A25.679,25.679,0,0,1,163.616,187.98Zm0,0" transform="translate(-95.84 -94.525)"/><path d="M219.849,213.451l-15.584,15.583-4.229-4.23a3.95,3.95,0,1,0-5.586,5.587l7.022,7.022a3.949,3.949,0,0,0,5.586,0l18.377-18.376a3.95,3.95,0,1,0-5.586-5.586Zm0,0" transform="translate(-142.43 -156.062)"/></g></svg>