<svg xmlns="http://www.w3.org/2000/svg" width="54.706" height="52.825" viewBox="0 0 54.706 52.825"><defs><style>.a{fill:#f1602a;}</style></defs><path class="a" d="M450.111,329.3a.869.869,0,0,0-.869.869v.38a.869.869,0,1,0,1.738,0v-.38A.869.869,0,0,0,450.111,329.3Zm0,0" transform="translate(-401.241 -294.112)"/><path class="a" d="M450.111,379.336a.869.869,0,0,0-.869.869v.38a.869.869,0,1,0,1.738,0v-.38A.869.869,0,0,0,450.111,379.336Zm0,0" transform="translate(-401.241 -338.805)"/><path class="a" d="M423.694,356.094h-.38a.869.869,0,0,0,0,1.738h.38a.869.869,0,0,0,0-1.738Zm0,0" transform="translate(-377.308 -318.046)"/><path class="a" d="M473.733,356.094h-.38a.869.869,0,0,0,0,1.738h.38a.869.869,0,0,0,0-1.738Zm0,0" transform="translate(-422 -318.046)"/><path class="a" d="M377.357,424.535a.868.868,0,0,0-.869.869v.38a.869.869,0,1,0,1.737,0v-.38A.868.868,0,0,0,377.357,424.535Zm0,0" transform="translate(-336.261 -379.174)"/><path class="a" d="M377.357,474.574a.868.868,0,0,0-.869.869v.38a.869.869,0,1,0,1.737,0v-.38A.868.868,0,0,0,377.357,474.574Zm0,0" transform="translate(-336.261 -423.867)"/><path class="a" d="M350.94,451.336h-.38a.869.869,0,1,0,0,1.737h.38a.869.869,0,0,0,0-1.737Zm0,0" transform="translate(-312.327 -403.112)"/><path class="a" d="M400.976,451.336h-.38a.869.869,0,1,0,0,1.737h.38a.869.869,0,0,0,0-1.737Zm0,0" transform="translate(-357.016 -403.112)"/><path class="a" d="M117.783,404.625a.868.868,0,0,0-.869.869v.38a.869.869,0,1,0,1.737,0v-.38A.868.868,0,0,0,117.783,404.625Zm0,0" transform="translate(-104.422 -361.392)"/><path class="a" d="M117.783,454.664a.868.868,0,0,0-.869.869v.38a.869.869,0,1,0,1.737,0v-.38A.868.868,0,0,0,117.783,454.664Zm0,0" transform="translate(-104.422 -406.084)"/><path class="a" d="M91.366,431.426h-.38a.869.869,0,0,0,0,1.737h.38a.869.869,0,0,0,0-1.737Zm0,0" transform="translate(-80.489 -385.329)"/><path class="a" d="M141.4,431.426h-.38a.869.869,0,1,0,0,1.737h.38a.869.869,0,0,0,0-1.737Zm0,0" transform="translate(-125.177 -385.329)"/><path class="a" d="M93.674,58.512a.869.869,0,0,0,.869-.869v-.38a.869.869,0,0,0-1.738,0v.38a.868.868,0,0,0,.869.869Zm0,0" transform="translate(-82.889 -50.369)"/><path class="a" d="M93.674,108.551a.869.869,0,0,0,.869-.869v-.38a.869.869,0,0,0-1.738,0v.38A.869.869,0,0,0,93.674,108.551Zm0,0" transform="translate(-82.889 -95.061)"/><path class="a" d="M66.873,84.929h.38a.869.869,0,0,0,0-1.738h-.38a.869.869,0,1,0,0,1.738Zm0,0" transform="translate(-58.951 -74.303)"/><path class="a" d="M116.916,84.929h.38a.869.869,0,0,0,0-1.738h-.38a.869.869,0,0,0,0,1.738Zm0,0" transform="translate(-103.648 -74.303)"/><path class="a" d="M409.634,89.25a.869.869,0,0,0,.869-.869V88a.869.869,0,0,0-1.738,0v.38A.869.869,0,0,0,409.634,89.25Zm0,0" transform="translate(-365.089 -77.823)"/><path class="a" d="M409.634,139.289a.869.869,0,0,0,.869-.869v-.38a.869.869,0,0,0-1.738,0v.38A.869.869,0,0,0,409.634,139.289Zm0,0" transform="translate(-365.089 -122.515)"/><path class="a" d="M382.838,115.67h.38a.869.869,0,0,0,0-1.737h-.38a.869.869,0,1,0,0,1.737Zm0,0" transform="translate(-341.156 -101.76)"/><path class="a" d="M432.877,115.67h.38a.869.869,0,0,0,0-1.737h-.38a.869.869,0,1,0,0,1.737Zm0,0" transform="translate(-385.849 -101.76)"/><path class="a" d="M307.709,2.118a.869.869,0,0,0,.869-.869V.869a.869.869,0,0,0-1.737,0v.38A.869.869,0,0,0,307.709,2.118Zm0,0" transform="translate(-274.055 0)"/><path class="a" d="M307.709,52.156a.868.868,0,0,0,.869-.869v-.38a.869.869,0,0,0-1.737,0v.38A.869.869,0,0,0,307.709,52.156Zm0,0" transform="translate(-274.055 -44.693)"/><path class="a" d="M280.912,28.534h.38a.869.869,0,0,0,0-1.738h-.38a.869.869,0,0,0,0,1.738Zm0,0" transform="translate(-250.121 -23.934)"/><path class="a" d="M330.951,28.534h.38a.869.869,0,0,0,0-1.738h-.38a.869.869,0,0,0,0,1.738Zm0,0" transform="translate(-294.813 -23.934)"/><path class="a" d="M92.068,111.471a.869.869,0,0,0,.869-.869,3.549,3.549,0,1,1,3.549,3.549H77.114a.869.869,0,0,0,0,1.737H96.486A5.286,5.286,0,1,0,91.2,110.6a.869.869,0,0,0,.869.869Zm0,0" transform="translate(-68.099 -94.064)"/><path class="a" d="M96.486,334.469H77.115a.869.869,0,0,0,0,1.738H96.486a3.549,3.549,0,1,1-3.549,3.549.869.869,0,0,0-1.738,0,5.286,5.286,0,1,0,5.286-5.286Zm0,0" transform="translate(-68.099 -298.732)"/><path class="a" d="M49.419,178.543a5.292,5.292,0,0,0-5.286,5.286.869.869,0,1,0,1.737,0,3.549,3.549,0,1,1,3.549,3.549H.868a.869.869,0,0,0,0,1.737H49.419a5.286,5.286,0,1,0,0-10.573Zm0,0" transform="translate(0.001 -159.466)"/></svg>