<svg xmlns="http://www.w3.org/2000/svg" width="49.243" height="52.825" viewBox="0 0 49.243 52.825"><defs><style>.a{fill:#f1602a;}</style></defs><path class="a" d="M147.379,406.083l-.681-1.533a22.445,22.445,0,0,1-7.925-3.664c.022.277.036.555.036.834a10.174,10.174,0,0,1-1,4.362Z" transform="translate(-125.379 -359.526)"/><path class="a" d="M122.259,468.61a8.667,8.667,0,0,0-.767,3.545v.037h12.535v-.655a8.6,8.6,0,0,0-.519-2.926Z" transform="translate(-110.748 -420.262)"/><path class="a" d="M117.89,304.853a5.385,5.385,0,0,0,4.126-2.79,11.665,11.665,0,0,1-2.475-4.024l-.293-.806a3.317,3.317,0,0,0-6.435,1.133v.438a3.317,3.317,0,0,0,.851,2.22l.575.638A20.558,20.558,0,0,0,117.89,304.853Z" transform="translate(-102.964 -264.609)"/><path class="a" d="M52.068,92.25v4.5a8.068,8.068,0,0,0,8.058,8.057h3.581a8.058,8.058,0,0,0,8.058-8.058V87.731a6.669,6.669,0,0,1-4.56-2.817,21.279,21.279,0,0,1-7.54,5.56,3.521,3.521,0,0,1,.46,1.8c0,1.484-.8,2.686-1.791,2.686s-1.791-1.2-1.791-2.686a3.848,3.848,0,0,1,.073-.723A21.113,21.113,0,0,1,52.068,92.25ZM65.5,89.583h.684a9.432,9.432,0,0,1,4.194.989l-.8,1.6a7.61,7.61,0,0,0-2.38-.725,3.905,3.905,0,0,1,.094.82c0,1.484-.8,2.686-1.791,2.686s-1.791-1.2-1.791-2.686S64.509,89.583,65.5,89.583Zm0,8.953a3.581,3.581,0,0,1-7.163,0Z" transform="translate(-48.487 -76.153)"/><path class="a" d="M189.284,305.447a4.827,4.827,0,0,1,.227.5l.293.806a9.837,9.837,0,0,0,3.171,4.392A7.645,7.645,0,0,0,189.284,305.447Z" transform="translate(-171.546 -273.933)"/><path class="a" d="M194.525,376.1l-.7,1.39-2.047-.227a11.616,11.616,0,0,1-5.823-2.34,7.2,7.2,0,0,1-3.357,2.842,20.593,20.593,0,0,0,9.532,2.348h3.861v-4.106l-.125-.125A.869.869,0,0,0,194.525,376.1Z" transform="translate(-165.553 -336.24)"/><path class="a" d="M19.147,20.594V14.325h.9a19.438,19.438,0,0,0,16.731-9.61l.4-.69,1.548.9-.4.69q-.5.849-1.064,1.641a4.849,4.849,0,0,0,4.273,2.59h.9V20.593a9.826,9.826,0,0,1-6.578,9.284c.012.006.024.011.036.018a9.436,9.436,0,0,1,3.479,3.465,8.041,8.041,0,0,0,4.854-7.395V13.43a13.43,13.43,0,0,0-26.86,0V25.965a8.067,8.067,0,0,0,8.058,8.058v-.264A5.089,5.089,0,0,1,26.863,30.2a9.863,9.863,0,0,1-7.716-9.609Z" transform="translate(-17.356 0)"/><path class="a" d="M334.24,295.051h-3.581a.9.9,0,0,0-.9.9v21.488h5.372v-.9h-1.791v-1.791h1.791v-1.791h-3.581v-1.791h3.581v-1.791h-1.791v-1.791h1.791v-1.791h-3.581V304h3.581v-1.791h-1.791v-1.791h1.791v-1.791h-3.581v-1.791h3.581v-.9A.9.9,0,0,0,334.24,295.051Z" transform="translate(-297.531 -264.61)"/><path class="a" d="M416.542,277.7H424.6v1.791h-8.058Z" transform="translate(-375.357 -249.044)"/><path class="a" d="M0,0H1.791V8.008H0Z" transform="translate(40.761 33.047) rotate(-63.435)"/><path class="a" d="M0,0H8.008V1.791H0Z" transform="translate(40.76 26.058) rotate(-26.565)"/></svg>