<svg xmlns="http://www.w3.org/2000/svg" width="19.404" height="20" viewBox="0 0 19.404 20"><defs><style>.a{fill:#fff;}</style></defs><path class="a" d="M13.82,22H10.18a1,1,0,0,1-.977-.786L8.8,19.33a8,8,0,0,1-1.535-.887l-1.837.585a1,1,0,0,1-1.17-.453L2.43,15.424a1.006,1.006,0,0,1,.193-1.239l1.425-1.3a8.1,8.1,0,0,1,0-1.772l-1.425-1.3a1.006,1.006,0,0,1-.193-1.24L4.25,5.423A1,1,0,0,1,5.42,4.97l1.837.585a8.076,8.076,0,0,1,.761-.5A8.207,8.207,0,0,1,8.8,4.669L9.2,2.787A1,1,0,0,1,10.18,2h3.64a1,1,0,0,1,.976.787l.412,1.883a7.993,7.993,0,0,1,.819.418,7.6,7.6,0,0,1,.715.469l1.838-.585a1,1,0,0,1,1.169.453l1.82,3.153a1.006,1.006,0,0,1-.193,1.239l-1.425,1.3a8.1,8.1,0,0,1,0,1.772l1.425,1.3a1.006,1.006,0,0,1,.193,1.239l-1.82,3.153a1,1,0,0,1-1.169.453l-1.838-.585a7.98,7.98,0,0,1-.724.475,8.183,8.183,0,0,1-.81.411L14.8,21.214A1,1,0,0,1,13.82,22Zm-6.2-5.771.82.6a5.867,5.867,0,0,0,.577.375,6.215,6.215,0,0,0,.579.3l.933.409L10.986,20h2.03l.457-2.092.933-.409a6.148,6.148,0,0,0,1.153-.666l.821-.6,2.041.65,1.015-1.758-1.583-1.443.112-1.012a6.029,6.029,0,0,0,0-1.332l-.112-1.012L19.437,8.88,18.421,7.121l-2.041.65-.821-.6A6.227,6.227,0,0,0,14.406,6.5l-.933-.409L13.016,4h-2.03l-.459,2.092L9.6,6.5a5.94,5.94,0,0,0-.579.293,6.011,6.011,0,0,0-.574.373l-.821.6-2.04-.65L4.565,8.88l1.583,1.441-.112,1.013a6.029,6.029,0,0,0,0,1.332l.112,1.012L4.565,15.121,5.58,16.879ZM12,16a4,4,0,1,1,4-4A4,4,0,0,1,12,16Zm0-6a2,2,0,1,0,2,2.09V12A2,2,0,0,0,12,10Z" transform="translate(-2.297 -2)"/></svg>