<svg xmlns="http://www.w3.org/2000/svg" width="34.983" height="31.629" viewBox="0 0 34.983 31.629"><defs><style>.a{fill:#fff;}</style></defs><g transform="translate(-2 -3.345)"><g transform="translate(2 3.345)"><path class="a" d="M3.249,5.843H5.634L9.5,21.314a3.481,3.481,0,0,0,.469,6.932H33.493a1.249,1.249,0,0,0,0-2.5H9.97a.991.991,0,0,1,0-1.982H31.253a1.248,1.248,0,0,0,1.185-.854L36.918,9.47a1.248,1.248,0,0,0-1.185-1.645H13.33a1.249,1.249,0,1,0,0,2.5H34L30.353,21.267H12.066L7.822,4.291A1.25,1.25,0,0,0,6.61,3.345H3.249a1.249,1.249,0,1,0,0,2.5Z" transform="translate(-2 -3.345)"/><path class="a" d="M20.66,26.713A3.23,3.23,0,1,0,23.9,23.49,3.237,3.237,0,0,0,20.66,26.713Zm3.961,0a.731.731,0,1,1-1.462,0,.731.731,0,0,1,1.462,0Z" transform="translate(2.654 1.679)"/><path class="a" d="M8,26.713a3.23,3.23,0,1,0,3.223-3.223A3.234,3.234,0,0,0,8,26.713Zm3.961,0a.747.747,0,0,1-.737.737.736.736,0,0,1-.725-.737.725.725,0,0,1,.725-.725A.736.736,0,0,1,11.961,26.713Z" transform="translate(-0.504 1.679)"/><path class="a" d="M15.8,16.6h5.6a1.249,1.249,0,1,0,0-2.5H15.8a1.249,1.249,0,1,0,0,2.5Z" transform="translate(1.13 -0.662)"/><path class="a" d="M15.8,13.016h5.6a1.249,1.249,0,0,0,0-2.5H15.8a1.249,1.249,0,0,0,0,2.5Z" transform="translate(1.13 -1.556)"/></g></g></svg>