<svg xmlns="http://www.w3.org/2000/svg" width="20.017" height="14.012" viewBox="0 0 20.017 14.012"><defs><style>.a{fill:#f1602a;}</style></defs><path class="a" d="M12.006,19.012h-.02c-.062,0-6.265-.012-7.83-.437A2.5,2.5,0,0,1,2.392,16.81,26.494,26.494,0,0,1,1.986,12,26.646,26.646,0,0,1,2.4,7.183,2.564,2.564,0,0,1,4.169,5.4C5.691,5,11.723,5,11.979,5H12c.063,0,6.282.012,7.831.437A2.5,2.5,0,0,1,21.593,7.2,25.234,25.234,0,0,1,22,12.031a26.568,26.568,0,0,1-.418,4.811A2.51,2.51,0,0,1,19.815,18.6C18.3,19.008,12.262,19.012,12.006,19.012Zm-2-10.007,0,6,5.212-3Z" transform="translate(-1.985 -5)"/></svg>