<svg xmlns="http://www.w3.org/2000/svg" width="17.638" height="23.028" viewBox="0 0 17.638 23.028"><defs><style>.a{fill:#fff;}</style></defs><g transform="translate(-6 -0.5)"><g transform="translate(6 1.872)"><path class="a" d="M22.756,24.956H6.882A.878.878,0,0,1,6,24.074V4.182A.878.878,0,0,1,6.882,3.3H22.756a.878.878,0,0,1,.882.882V24.025a.89.89,0,0,1-.882.931ZM7.764,23.143H21.825V5.113H7.764Z" transform="translate(-6 -3.3)"/></g><g transform="translate(9.822 0.5)"><path class="a" d="M14.682,4.861a.878.878,0,0,1-.882-.882v-2.6a.882.882,0,0,1,1.764,0V3.93a.89.89,0,0,1-.882.931Z" transform="translate(-13.8 -0.5)"/><g transform="translate(4.116)"><path class="a" d="M23.082,4.861a.878.878,0,0,1-.882-.882v-2.6a.882.882,0,1,1,1.764,0V3.93a.89.89,0,0,1-.882.931Z" transform="translate(-22.2 -0.5)"/></g><g transform="translate(8.231)"><path class="a" d="M31.482,4.861a.878.878,0,0,1-.882-.882v-2.6a.882.882,0,1,1,1.764,0V3.93a.837.837,0,0,1-.882.931Z" transform="translate(-30.6 -0.5)"/></g></g><g transform="translate(9.822 9.123)"><path class="a" d="M22.913,19.864H14.682a.882.882,0,1,1,0-1.764h8.28a.878.878,0,0,1,.882.882.89.89,0,0,1-.931.882Z" transform="translate(-13.8 -18.1)"/><g transform="translate(0 5.438)"><path class="a" d="M22.913,30.964H14.682a.882.882,0,1,1,0-1.764h8.28a.878.878,0,0,1,.882.882.921.921,0,0,1-.931.882Z" transform="translate(-13.8 -29.2)"/></g></g></g></svg>